# xmcd CD database file
#
# Track frame offsets:
#	150
#	18585
#	36525
#	52725
#	72450
#	86737
#	103912
#	118725
#	135525
#	150337
#
# Disc length: 2232 seconds
#
# Revision: 0
# Processed by: cddbd v1.5.1PL0 Copyright (c) Steve Scherf et al.
# Submitted via: CDex 1.40Release
#
DISCID=8608b60a
DTITLE=Coal - Workin' Man
DYEAR=2002
DGENRE=Country
TTITLE0=Billy Brown
TTITLE1=Workin' Man
TTITLE2=Scarred Boy
TTITLE3=Bell Rings Wrong
TTITLE4=She's A Beauty-Queen
TTITLE5=My Angel's Whining
TTITLE6=Gentle
TTITLE7=A Honky tonk Tale
TTITLE8=Easy Life
TTITLE9=Heart Of Stone
EXTD=YEAR: 2002 ID3G: 2
EXTT0=
EXTT1=
EXTT2=
EXTT3=
EXTT4=
EXTT5=
EXTT6=
EXTT7=
EXTT8=
EXTT9=
PLAYORDER=
